# xmcd CD database file
#
# Track frame offsets:
#	150
#	13580
#	33330
#	52624
#	79123
#	101926
#	121284
#	140567
#	161826
#	183328
#	220725
#
# Disc length: 3198 seconds
#
# Revision: 2
# Processed by: cddbd v1.5.2PL0 Copyright (c) Steve Scherf et al.
# Submitted via: CDex 1.51
#
DISCID=8e0c7c0b
DTITLE=SHAMAN - Immortal
DYEAR=2007
DGENRE=Hard Rock
TTITLE0=Renovatti
TTITLE1=Inside Chains
TTITLE2=Tribal By Blood
TTITLE3=Immortal
TTITLE4=One Life
TTITLE5=In The Dark
TTITLE6=Strength
TTITLE7=Freedom
TTITLE8=Never Yield
TTITLE9=The Yellow Brick Road
TTITLE10=In The Dark (Acoustic Version)
EXTD=YEAR: 2007
EXTT0=
EXTT1=
EXTT2=
EXTT3=
EXTT4=
EXTT5=
EXTT6=
EXTT7=
EXTT8=
EXTT9=
EXTT10=
PLAYORDER=
